<?xml version="1.0" standalone="no"?>
<!DOCTYPE svg PUBLIC "-//W3C//DTD SVG 20010904//EN"
 "http://www.w3.org/TR/2001/REC-SVG-20010904/DTD/svg10.dtd">
<svg version="1.0" xmlns="http://www.w3.org/2000/svg"
 width="48.000000pt" height="48.000000pt" viewBox="0 0 48.000000 48.000000"
 preserveAspectRatio="xMidYMid meet">

<g transform="translate(0.000000,48.000000) scale(0.100000,-0.100000)"
fill="#000000" stroke="none">
<path d="M160 391 c0 -13 8 -21 23 -23 14 -2 23 -11 25 -25 2 -15 10 -23 22
-23 12 0 20 8 22 23 2 12 13 26 26 32 12 5 22 15 22 22 0 21 -25 15 -35 -9 -7
-15 -19 -23 -35 -23 -16 0 -28 8 -35 23 -12 27 -35 29 -35 3z"/>
<path d="M100 331 c0 -13 8 -21 23 -23 16 -2 23 -11 25 -30 4 -37 42 -40 42
-4 0 18 -6 25 -22 28 -15 2 -24 11 -26 26 -4 28 -42 31 -42 3z"/>
<path d="M340 335 c0 -8 7 -15 15 -15 8 0 15 7 15 15 0 8 -7 15 -15 15 -8 0
-15 -7 -15 -15z"/>
<path d="M290 275 c0 -18 5 -25 20 -25 15 0 20 7 20 25 0 18 -5 25 -20 25 -15
0 -20 -7 -20 -25z"/>
<path d="M100 225 c0 -8 7 -15 15 -15 8 0 15 7 15 15 0 8 -7 15 -15 15 -8 0
-15 -7 -15 -15z"/>
<path d="M350 225 c0 -8 7 -15 15 -15 8 0 15 7 15 15 0 8 -7 15 -15 15 -8 0
-15 -7 -15 -15z"/>
<path d="M220 140 c0 -83 2 -90 20 -90 17 0 20 8 23 68 2 49 5 61 11 45 5 -13
15 -23 22 -23 22 0 16 24 -8 35 -13 6 -24 20 -26 33 -2 14 -10 22 -23 22 -17
0 -19 -8 -19 -90z"/>
<path d="M170 150 c0 -11 7 -20 15 -20 8 0 15 9 15 20 0 11 -7 20 -15 20 -8 0
-15 -9 -15 -20z"/>
</g>
</svg>
