<?xml version="1.0" standalone="no"?>
<!DOCTYPE svg PUBLIC "-//W3C//DTD SVG 20010904//EN"
 "http://www.w3.org/TR/2001/REC-SVG-20010904/DTD/svg10.dtd">
<svg version="1.0" xmlns="http://www.w3.org/2000/svg"
 width="560.000000pt" height="560.000000pt" viewBox="0 0 560.000000 560.000000"
 preserveAspectRatio="xMidYMid meet">

<g transform="translate(0.000000,560.000000) scale(0.100000,-0.100000)"
fill="#000000" stroke="none">
<path d="M2585 4849 c-812 -85 -1513 -648 -1770 -1421 -338 -1015 104 -2098
1050 -2579 122 -61 272 -119 311 -119 37 0 78 25 92 55 12 26 18 426 7 437 -4
3 -25 1 -48 -5 -23 -5 -98 -10 -167 -11 -148 -1 -230 20 -325 82 -83 54 -118
97 -180 225 -62 128 -111 197 -175 244 -98 73 -120 94 -120 118 0 31 54 50
118 41 109 -15 219 -95 298 -218 78 -121 160 -186 271 -215 75 -20 187 -12
273 19 61 22 65 25 72 63 13 67 39 127 79 187 l39 57 -38 6 c-206 32 -329 68
-452 131 -270 139 -414 380 -450 755 -27 273 23 482 158 659 l49 65 -16 40
c-11 30 -15 79 -15 200 0 141 3 169 25 240 l24 80 43 3 c97 7 304 -70 462
-173 l73 -46 126 25 c291 58 549 56 831 -5 l95 -21 95 58 c169 102 308 155
417 157 l67 2 18 -48 c49 -131 58 -310 22 -453 l-16 -64 35 -42 c133 -164 184
-343 174 -601 -16 -413 -163 -680 -457 -831 -125 -65 -232 -95 -458 -132 l-33
-5 31 -39 c38 -48 74 -128 89 -198 7 -34 11 -182 11 -407 0 -253 3 -362 12
-380 14 -30 55 -55 92 -55 39 0 189 58 311 119 859 436 1311 1378 1119 2329
-109 541 -433 1021 -904 1337 -113 76 -358 194 -495 240 -269 88 -592 123
-870 94z"/>
</g>
</svg>
