<?xml version="1.0" encoding="UTF-8" standalone="no"?>
<svg
   xmlns:dc="http://purl.org/dc/elements/1.1/"
   xmlns:cc="http://creativecommons.org/ns#"
   xmlns:rdf="http://www.w3.org/1999/02/22-rdf-syntax-ns#"
   xmlns:svg="http://www.w3.org/2000/svg"
   xmlns="http://www.w3.org/2000/svg"
   viewBox="0 0 160.38667 185.2"
   height="185.2"
   width="160.38667"
   xml:space="preserve"
   id="svg2"
   version="1.1"><metadata
     id="metadata8"><rdf:RDF><cc:Work
         rdf:about=""><dc:format>image/svg+xml</dc:format><dc:type
           rdf:resource="http://purl.org/dc/dcmitype/StillImage" /></cc:Work></rdf:RDF></metadata><defs
     id="defs6" /><g
     transform="matrix(1.3333333,0,0,-1.3333333,0,185.2)"
     id="g10"><g
       transform="scale(0.1)"
       id="g12"><path
         id="path14"
         style="fill:#316dbd;fill-opacity:1;fill-rule:nonzero;stroke:none"
         d="M 1202.88,1041.73 V 347.238 L 601.438,0 0.00390625,347.238 V 1041.73 L 601.438,1388.98 1202.88,1041.73" /><path
         id="path16"
         style="fill:#ffffff;fill-opacity:1;fill-rule:nonzero;stroke:none"
         d="m 1113.32,697.723 c 0,-27.328 -2.81,-51.785 -8.44,-73.36 -7.2,-27.336 -17.51,-49.359 -30.95,-66.078 -13.45,-16.726 -27.9,-28.863 -43.38,-36.41 -15.47,-7.559 -29.85,-12.328 -43.14,-14.301 -13.293,-1.98 -26.652,-3.152 -40.09,-3.508 H 816.961 v 380.84 h 105.508 c 14.691,-0.359 27.429,-0.902 38.211,-1.609 10.793,-0.734 22.429,-2.434 34.941,-5.133 12.499,-2.699 24.849,-7.109 37.039,-13.219 12.2,-6.121 23.29,-14.379 33.3,-24.808 16.25,-16.91 28.21,-37.766 35.87,-62.574 7.66,-24.821 11.49,-51.442 11.49,-79.84 m -82.53,-3.778 c 0,15.821 -1.17,29.848 -3.52,42.078 -2.34,12.223 -6.96,23.731 -13.83,34.524 -9.7,14.75 -20.799,24.086 -33.299,28.047 -12.5,3.961 -27.981,5.941 -46.422,5.941 H 900.434 V 580.664 h 25.316 c 15,0.359 27.969,1.531 38.922,3.512 10.937,1.972 21.488,6.562 31.648,13.758 10.16,7.183 18.44,18.511 24.86,33.98 6.4,15.457 9.61,36.141 9.61,62.031 M 385.93,807.82 v 77.082 H 255.574 c -13.441,-0.347 -26.801,-1.519 -40.101,-3.5 -13.282,-1.968 -27.664,-6.738 -43.141,-14.297 -15.469,-7.55 -29.934,-19.695 -43.371,-36.414 -13.441,-16.718 -23.758,-38.738 -30.9493,-66.078 -5.6328,-21.582 -8.4375,-46.027 -8.4375,-73.359 0,-28.414 3.8281,-55.02 11.4888,-79.844 7.66,-24.808 19.617,-45.656 35.867,-62.566 10.011,-10.43 21.105,-18.703 33.293,-24.821 12.203,-6.109 24.55,-10.507 37.05,-13.207 12.508,-2.703 24.149,-4.406 34.93,-5.132 10.785,-0.707 23.527,-1.25 38.219,-1.614 H 385.93 V 710.133 H 302.465 V 584.441 h -33.293 c -18.442,0 -33.922,1.985 -46.43,5.93 -12.5,3.973 -23.597,13.309 -33.293,28.063 -6.871,10.781 -11.488,22.296 -13.828,34.519 -2.348,12.231 -3.519,26.25 -3.519,42.07 0,25.899 3.207,46.579 9.609,62.043 6.41,15.469 14.703,26.786 24.863,33.981 10.156,7.195 20.707,11.785 31.645,13.758 10.941,1.976 23.914,3.148 38.922,3.511 h 25.324 z m 67.336,77.086 h 86.457 l 76.461,-140.25 c 7.328,-13.672 13.656,-25.715 19,-36.136 5.32,-10.446 9.41,-18.442 12.242,-24.012 2.824,-5.578 9.906,-19.871 21.238,-42.879 l 0.496,-1.082 -3.996,244.359 h 84.457 V 504.066 H 663.16 l -65.965,120.293 c -8.332,14.746 -15.082,26.789 -20.242,36.149 -5.168,9.34 -9.66,17.801 -13.488,25.351 -3.844,7.547 -7.672,15.192 -11.5,22.93 -3.832,7.719 -9.414,19.32 -16.742,34.789 l 2.5,-239.512 h -84.457 v 380.84" /></g></g></svg>