<?xml version="1.0" standalone="no"?>
<!DOCTYPE svg PUBLIC "-//W3C//DTD SVG 20010904//EN"
 "http://www.w3.org/TR/2001/REC-SVG-20010904/DTD/svg10.dtd">
<svg version="1.0" xmlns="http://www.w3.org/2000/svg"
 width="256.000000pt" height="256.000000pt" viewBox="0 0 256.000000 256.000000"
 preserveAspectRatio="xMidYMid meet">
<metadata>
Created by potrace 1.16, written by Peter Selinger 2001-2019
</metadata>
<g transform="translate(0.000000,256.000000) scale(0.100000,-0.100000)"
fill="#000000" stroke="none">
<path d="M0 1280 l0 -1280 1280 0 1280 0 0 1280 0 1280 -1280 0 -1280 0 0
-1280z m528 796 c118 -62 138 -216 39 -303 -32 -28 -90 -53 -122 -53 -60 0
-148 60 -171 117 -17 39 -18 101 -3 140 14 37 57 82 94 99 40 18 129 18 163 0z
m768 -113 c30 -49 103 -164 161 -258 58 -93 182 -293 276 -444 l172 -275 5
530 5 529 162 3 c162 2 163 2 168 -20 3 -13 4 -374 3 -803 l-3 -780 -179 0
-178 0 -140 225 c-215 346 -343 552 -432 697 -45 73 -84 132 -88 132 -5 1 -8
-238 -8 -529 l0 -530 -162 2 -163 3 -3 803 -2 802 175 0 176 0 55 -87z m-676
-953 l0 -560 -170 0 -170 0 0 560 0 560 170 0 170 0 0 -560z"/>
</g>
</svg>
