<?xml version="1.0" encoding="utf-8"?>
<!-- Generator: Adobe Illustrator 16.0.0, SVG Export Plug-In . SVG Version: 6.00 Build 0)  -->
<!DOCTYPE svg PUBLIC "-//W3C//DTD SVG 1.1//EN" "http://www.w3.org/Graphics/SVG/1.1/DTD/svg11.dtd">
<svg version="1.1" xmlns="http://www.w3.org/2000/svg" xmlns:xlink="http://www.w3.org/1999/xlink" x="0px" y="0px"
	 width="228.188px" height="228.188px" viewBox="0 0 228.188 228.188" enable-background="new 0 0 228.188 228.188"
	 xml:space="preserve">
<g id="Hintergrund">
</g>
<g id="Hilfslinien_anzeigen">
</g>
<g id="Vordergrund">
	<path fill-rule="evenodd" clip-rule="evenodd" fill="#006BAC" d="M162.91,111.321c0.369-0.066,0.641-0.11,1-0.197
		c9.115-2.312,15.906-11.094,15.906-20.86l-0.209-66.776h24.697v67.127c0.023,23.327-17.691,42.728-40.395,45.125l-0.996,0.104
		L162.91,111.321z M155.563,135.848l-1.281-0.107c-22.699-2.371-40.251-21.551-40.251-44.878V23.488h24.539l-0.039,66.776
		c0,9.766,6.791,18.548,15.902,20.86c0.402,0.097,0.713,0.161,1.123,0.233L155.563,135.848z M95.62,204.266v-39.909h-7.792v39.909
		H95.62z M148.596,204.266v-6.95H130.1v-9.697h15.75v-6.951H130.1v-9.359h18.496v-6.951h-26.289v39.909H148.596z M204.414,204.266
		v-39.909h-7.791v24.438l-15.807-24.438h-6.951v39.909h7.791v-24.495l15.807,24.495H204.414z M69.036,164.803h-8.128l-6.221,25.168
		L47.4,164.803h-5.829l-7.287,25.168l-6.166-25.168h-8.127l10.65,39.909h6.501l7.343-24.215l7.343,24.215h6.502L69.036,164.803z
		 M18.143,23.488h84.691v24.213H18.143V23.488z M48.789,135.206V54.744h24.213v80.462H48.789z M204.803,0.708
		c12.516,0,22.631,10.158,22.631,22.688l0.047,181.396c0,12.53-10.193,22.688-22.709,22.688H23.387
		c-12.516,0-22.678-10.157-22.678-22.688L0.725,23.396c0-12.531,10.13-22.688,22.646-22.688H204.803z"/>
</g>
</svg>
