<?xml version="1.0" encoding="utf-8"?>
<!-- Generator: Adobe Illustrator 21.0.0, SVG Export Plug-In . SVG Version: 6.00 Build 0)  -->
<svg version="1.1" id="katman_1" xmlns="http://www.w3.org/2000/svg" xmlns:xlink="http://www.w3.org/1999/xlink" x="0px" y="0px"
	 viewBox="0 0 595.3 408" style="enable-background:new 0 0 595.3 408;" xml:space="preserve">
<style type="text/css">
	.st0{fill-rule:evenodd;clip-rule:evenodd;}
	.st1{fill-rule:evenodd;clip-rule:evenodd;fill:#E30613;}
	.st2{fill:#E30613;}
</style>
<path class="st0" d="M277.8,227.8v6.4c1.8,0.1,3.3-0.7,3.3-3.3C281.1,228.5,279.6,227.8,277.8,227.8z M277.8,238.1v6.7
	c1.9,0.1,3.7-1.5,3.6-3.5C281.3,239.5,279.7,238,277.8,238.1z M281.9,236c0,0,3.9,1.1,3.9,6c0,3.9-3.6,6.9-7.1,6.9h-0.9h-3.7h-0.7
	v-25.1h1.6h2.7c4.7,0.1,7.5,2.8,7.7,6.4C285.6,232.8,284.3,234.9,281.9,236z M233.3,223.7h3h4.4h3.2v4.2h-3.2v20.9h-4.4v-20.9h-3
	V223.7z M253.4,221.6v-3.8h3.8v3.8H253.4z M252,223.7h4.4v19.5c0,1,0.8,1.9,1.9,1.9c1,0,1.9-0.8,1.9-1.9v-19.5h4.4V243
	c0,3.5-2.8,6.3-6.3,6.3c-3.5,0-6.3-2.8-6.3-6.3V223.7z M259.4,221.6v-3.8h3.8v3.8H259.4z M306.6,223.7h3h4.4h3.2v4.2h-3.2v20.9h-4.4
	v-20.9h-3V223.7z M294,217.8h4.4v3.8H294V217.8z M294,223.7h4.4v25.1H294V223.7z M331.2,232.1l-1.4,7.8h2.7L331.2,232.1z
	 M324.1,248.8l5.1-25.1h0.6h3h0.6l5.1,25.1h-4.2l-0.9-4.9h-4.1l-0.9,4.9H324.1z M354.2,223.7l4.9,0l-4.3,10.6l-0.1,0.1l4.4,14.5
	l-5-0.1l-2.7-9.2l-0.9,2.5v6.8h-4.4v-25.1h4.4v10.3L354.2,223.7z"/>
<path class="st1" d="M368.9,319.3c7.3-3.3,11-9.6,10.6-17.6c-0.6-11.1-9.1-19.2-23.1-19.4h-8.3h-4.9V358h2h11.3h2.7
	c10.5,0,21.4-9.1,21.4-20.8C380.6,322.6,368.9,319.3,368.9,319.3z M356.5,294.7c5.4-0.2,10.1,2,10.1,9.6c0,7.7-4.6,10.1-10.1,9.8
	V294.7z M356.5,345.9v-20.2c5.7-0.4,10.6,4,10.8,9.7C367.6,341.3,362.4,346.4,356.5,345.9z"/>
<path class="st1" d="M102.3,281.9h13.3v59c0,3.1,2.5,5.7,5.7,5.7c3.1,0,5.7-2.5,5.7-5.7v-59h13.3V340c0,10.5-8.5,18.9-18.9,18.9
	c-10.5,0-18.9-8.5-18.9-18.9V281.9z"/>
<rect x="405.2" y="265.1" class="st1" width="13.3" height="11.5"/>
<rect x="405.2" y="282" class="st1" width="13.3" height="76"/>
<path class="st1" d="M242.3,282h-1.8h-8.9h-1.8l-15.3,76h12.6l2.6-14.9h12.6L245,358h12.6L242.3,282z M231.9,331l4.2-23.6l4.2,23.6
	H231.9z"/>
<polygon class="st1" points="305.2,282 320.1,282 307.1,313.9 306.9,314.2 320.1,358.1 305.1,357.8 296.9,329.9 294.1,337.4 
	294.1,357.8 280.8,357.8 280.8,282 294.1,282 294.1,313.2 "/>
<rect x="77" y="245.1" class="st0" width="163.8" height="4.5"/>
<rect x="354.5" y="245.1" class="st0" width="163.8" height="4.5"/>
<polygon class="st1" points="179.7,345.5 179.7,281.9 166.3,281.9 166.3,358 171.7,358 179.7,358 193.7,358 193.7,345.5 "/>
<polygon class="st1" points="477.1,282 467.9,310 458.5,282 445.2,282 445.2,358 458.5,358 458.5,313.8 467.9,340.8 477.1,314.6 
	477.1,358 490.4,358 490.4,282 "/>
<g>
	<path class="st2" d="M258.3,118c0-20.8,16.9-37.7,37.7-37.7c20.8,0,37.7,16.9,37.7,37.7l-2.3,0c0-19.6-15.9-35.4-35.4-35.4
		s-35.4,15.9-35.4,35.4L258.3,118z M319,147.9c-6.4,4.9-14.3,7.8-22.9,7.8c-8.6,0-16.6-2.9-22.9-7.8c-0.4-1.2-0.6-2.4-0.8-3.7
		c6.3,5.7,14.6,9.1,23.8,9.1c9.1,0,17.5-3.5,23.8-9.2C319.6,145.5,319.3,146.7,319,147.9z M265.2,118c0-17,13.8-30.9,30.9-30.9
		c17,0,30.9,13.8,30.9,30.9l-3.4,0c0-15.2-12.3-27.4-27.4-27.4c-15.2,0-27.4,12.3-27.4,27.4L265.2,118z M296,148.8
		c-9.6,0-18.1-4.4-23.8-11.2c0.2-1.5,0.5-3,1-4.4c4.9,7.3,13.3,12.2,22.8,12.2c9.5,0,17.9-4.8,22.8-12.2c0.5,1.4,0.8,2.9,1,4.4
		C314.2,144.5,305.6,148.8,296,148.8z M317.2,129.4c-4.1,7.5-12,12.6-21.1,12.6c-9.1,0-17.1-5.1-21.1-12.6
		c2.9-5.4,7.8-9.5,13.8-11.4l-16.7,0c0-13.3,10.7-24,24-24c13.3,0,24,10.7,24,24l-16.7,0C309.3,119.9,314.2,124,317.2,129.4z"/>
	<path class="st0" d="M318.8,133.3c-0.4-1.3-1-2.6-1.7-3.9c1.8-3.4,2.9-7.3,2.9-11.4h3.4C323.5,123.6,321.8,128.9,318.8,133.3z
		 M319.8,144.3c0.2-1.1,0.2-2.3,0.2-3.4c0-1.1-0.1-2.2-0.2-3.2c4.4-5.3,7.1-12.2,7.1-19.7l4.6,0C331.5,128.4,327,137.8,319.8,144.3z
		 M268.6,118h3.4c0,4.1,1,8,2.9,11.4c-0.7,1.2-1.2,2.5-1.7,3.9C270.3,128.9,268.6,123.6,268.6,118z M260.6,118l4.6,0
		c0,7.5,2.7,14.3,7.1,19.7c-0.1,1-0.2,2.1-0.2,3.2c0,1.2,0.1,2.3,0.2,3.4C265.1,137.8,260.6,128.4,260.6,118z M358.9,118L296,206
		l-62.9-88l25.2,0c0,12.2,5.8,23.1,14.8,30c3,9.8,12.2,16.9,22.9,16.9c10.8,0,19.9-7.1,22.9-16.9c9-6.9,14.8-17.7,14.8-30L358.9,118
		z"/>
</g>
</svg>
