<?xml version="1.0" standalone="no"?>
<!DOCTYPE svg PUBLIC "-//W3C//DTD SVG 20010904//EN"
 "http://www.w3.org/TR/2001/REC-SVG-20010904/DTD/svg10.dtd">
<svg version="1.0" xmlns="http://www.w3.org/2000/svg"
 width="90.000000pt" height="90.000000pt" viewBox="0 0 90.000000 90.000000"
 preserveAspectRatio="xMidYMid meet">
<metadata>
Created by potrace 1.16, written by Peter Selinger 2001-2019
</metadata>
<g transform="translate(0.000000,90.000000) scale(0.100000,-0.100000)"
fill="#000000" stroke="none">
<path d="M662 758 c-7 -7 -12 -20 -12 -30 0 -11 -7 -18 -18 -18 -11 0 -27 -9
-37 -20 -15 -16 -15 -22 -5 -35 7 -8 23 -15 36 -15 17 0 23 -6 26 -26 6 -56
68 -53 68 2 0 19 5 24 25 24 47 0 44 61 -4 68 -12 2 -21 11 -21 21 0 19 -18
41 -35 41 -6 0 -16 -5 -23 -12z"/>
<path d="M313 742 c-148 -61 -231 -190 -221 -345 8 -126 80 -231 197 -289 38
-19 62 -23 141 -23 89 0 99 2 158 34 105 57 172 158 180 273 2 36 2 78 -2 91
-6 24 -8 25 -41 16 -19 -6 -42 -9 -52 -7 -14 3 -17 -7 -17 -68 -1 -60 -5 -78
-31 -120 -19 -30 -49 -60 -79 -79 -42 -26 -59 -30 -115 -30 -137 1 -225 89
-225 225 0 68 16 113 58 158 51 57 167 88 224 59 l31 -15 -10 25 c-6 16 -6 38
1 62 5 20 10 39 10 42 0 15 -166 8 -207 -9z"/>
</g>
</svg>
