<?xml version="1.0" standalone="no"?>
<!DOCTYPE svg PUBLIC "-//W3C//DTD SVG 20010904//EN"
 "http://www.w3.org/TR/2001/REC-SVG-20010904/DTD/svg10.dtd">
<svg version="1.0" xmlns="http://www.w3.org/2000/svg"
 width="48.000000pt" height="48.000000pt" viewBox="0 0 48.000000 48.000000"
 preserveAspectRatio="xMidYMid meet">

<g transform="translate(0.000000,48.000000) scale(0.100000,-0.100000)"
fill="#000000" stroke="none">
<path d="M60 244 l0 -124 30 0 30 0 0 79 c0 74 2 81 26 100 32 25 60 27 72 6
7 -13 14 -14 36 -5 38 14 62 13 80 -6 25 -24 10 -34 -50 -34 -66 0 -94 -22
-94 -74 0 -63 67 -94 130 -61 17 9 30 11 30 5 0 -5 16 -10 35 -10 l36 0 -3
101 c-4 132 -11 139 -149 143 -52 2 -104 0 -115 -5 -12 -4 -38 -4 -58 1 l-36
8 0 -124z m288 -41 c-2 -10 -15 -24 -30 -33 -25 -13 -29 -13 -44 2 -27 27 -11
48 36 48 34 0 41 -3 38 -17z"/>
</g>
</svg>
